<svg width="16" height="32" viewBox="0 0 16 32" fill="none" xmlns="http://www.w3.org/2000/svg">
<path d="M15.3818 23.333C14.8925 22.846 14.1011 22.8479 13.6141 23.3372L9.25005 27.7223V1.25C9.25005 0.559625 8.69043 0 8.00005 0C7.30968 0 6.75006 0.559625 6.75006 1.25V27.7224L2.38606 23.3371C1.89906 22.8478 1.10762 22.8459 0.618306 23.3329C0.128932 23.82 0.12712 24.6114 0.614057 25.1007L7.11406 31.6322C7.11443 31.6327 7.11487 31.633 7.11524 31.6334C7.60224 32.1214 8.39624 32.123 8.88487 31.6334C8.88524 31.633 8.88568 31.6327 8.88605 31.6323L15.3861 25.1008C15.8729 24.6116 15.8712 23.8201 15.3818 23.333Z" fill="#878D96"/>
</svg>
