<svg width="30" height="30" viewBox="0 0 30 30" fill="none" xmlns="http://www.w3.org/2000/svg">
<circle cx="15" cy="15" r="15" fill="white"/>
<path d="M17.7364 8.00291L16.0574 8C14.1711 8 12.9521 9.35233 12.9521 11.4454V13.034H11.264C11.1181 13.034 11 13.1619 11 13.3196V15.6213C11 15.779 11.1183 15.9067 11.264 15.9067H12.9521V21.7145C12.9521 21.8723 13.0703 22 13.2161 22H15.4187C15.5646 22 15.6827 21.8721 15.6827 21.7145V15.9067H17.6565C17.8024 15.9067 17.9205 15.779 17.9205 15.6213L17.9213 13.3196C17.9213 13.2439 17.8935 13.1713 17.844 13.1177C17.7946 13.0641 17.7272 13.034 17.6572 13.034H15.6827V11.6873C15.6827 11.0401 15.8253 10.7115 16.6051 10.7115L17.7361 10.7111C17.8819 10.7111 18 10.5832 18 10.4256V8.28838C18 8.13094 17.882 8.0032 17.7364 8.00291Z" fill="#080D2A"/>
</svg>
