<svg width="30" height="30" viewBox="0 0 30 30" fill="none" xmlns="http://www.w3.org/2000/svg">
<circle cx="15" cy="15" r="15" fill="white"/>
<path d="M17.9332 8H12.0668C9.82435 8 8 9.82435 8 12.0668V17.9332C8 20.1757 9.82435 22 12.0668 22H17.9332C20.1757 22 22 20.1757 22 17.9332V12.0668C22 9.82435 20.1757 8 17.9332 8ZM20.9062 17.9332C20.9062 19.5726 19.5726 20.9062 17.9332 20.9062H12.0668C10.4274 20.9062 9.09375 19.5726 9.09375 17.9332V12.0668C9.09375 10.4274 10.4274 9.09375 12.0668 9.09375H17.9332C19.5726 9.09375 20.9062 10.4274 20.9062 12.0668V17.9332Z" fill="#080D2A"/>
<path d="M14.9998 11.2261C12.9191 11.2261 11.2263 12.9188 11.2263 14.9995C11.2263 17.0802 12.9191 18.7729 14.9998 18.7729C17.0805 18.7729 18.7732 17.0802 18.7732 14.9995C18.7732 12.9188 17.0805 11.2261 14.9998 11.2261ZM14.9998 17.6792C13.5222 17.6792 12.3201 16.4771 12.3201 14.9995C12.3201 13.5219 13.5222 12.3198 14.9998 12.3198C16.4773 12.3198 17.6794 13.5219 17.6794 14.9995C17.6794 16.4771 16.4773 17.6792 14.9998 17.6792Z" fill="#080D2A"/>
<path d="M18.8281 11.7188C19.1302 11.7188 19.375 11.4739 19.375 11.1719C19.375 10.8698 19.1302 10.625 18.8281 10.625C18.5261 10.625 18.2812 10.8698 18.2812 11.1719C18.2812 11.4739 18.5261 11.7188 18.8281 11.7188Z" fill="#080D2A"/>
</svg>
