<svg width="43" height="28" viewBox="0 0 43 28" fill="none" xmlns="http://www.w3.org/2000/svg">
<g clip-path="url(#clip0_201_2)">
<path d="M16.6763 16.8535L11.1478 19.0828" stroke="white"/>
<path d="M0.271912 8.91724L3.62531 9.80896" stroke="white"/>
<path d="M21.0267 10.5222L16.6763 11.8598" stroke="white" stroke-linejoin="bevel"/>
<path d="M5.7363 0.182158L5.6192 0.146973V0.267442V6.42031V6.48902L5.68674 6.50654L20.8224 10.4301L20.9361 10.4596V10.3439V4.81521V4.74921L20.8719 4.72993L5.7363 0.182158Z" fill="white" stroke="white"/>
<path d="M5.73318 8.92029L5.6192 8.89038V9.00645V14.2676V14.3389L5.68993 14.3546L16.5658 16.7622L16.6763 16.7867V16.6752V11.8599V11.7914L16.6091 11.7738L5.73318 8.92029Z" fill="white" stroke="white"/>
<path d="M5.72791 14.2693L5.6192 14.2476V14.3567V27.6433V27.7822L5.74756 27.7245L11.0949 25.3168L11.1478 25.2929V25.2357V15.4268V15.3539L11.0752 15.3394L5.72791 14.2693Z" fill="white" stroke="white"/>
<path d="M0.181274 8.91702V2.9425L5.61921 0.178223L5.70984 6.42021L0.181274 8.91702Z" stroke="white" stroke-linejoin="bevel"/>
<path d="M0.181274 24.7897V11.5922L5.61921 8.82788L5.70984 27.8215L0.181274 24.7897Z" stroke="white" stroke-linejoin="bevel"/>
<path d="M16.2131 20.1442H20.3491V22.1555H16.2131V20.1442ZM22.1011 17.6093H24.7924V25.076H22.1011V17.6093ZM23.4468 16.7828C22.9557 16.7828 22.5591 16.6497 22.2569 16.3833C21.9548 16.1168 21.8037 15.7862 21.8037 15.3914C21.8037 14.9966 21.9548 14.6659 22.2569 14.3995C22.5591 14.1332 22.9557 14 23.4468 14C23.9377 14 24.3343 14.1286 24.6366 14.3857C24.9388 14.6337 25.0898 14.9552 25.0898 15.3501C25.0898 15.7633 24.9388 16.1077 24.6366 16.3833C24.3343 16.6497 23.9377 16.7828 23.4468 16.7828ZM30.2381 22.4585L29.4449 23.2438V25.076H26.7537V14.8541H29.4449V20.213L32.1927 17.6093H35.3797L32.1927 20.8054L35.6488 25.076H32.391L30.2381 22.4585ZM39.204 25.2C38.5618 25.2 37.9292 25.1311 37.306 24.9934C36.6828 24.8465 36.1822 24.658 35.8046 24.4285L36.612 22.6376C36.9613 22.849 37.3768 23.0187 37.8584 23.1474C38.34 23.2667 38.8168 23.3264 39.289 23.3264C39.7233 23.3264 40.0301 23.2851 40.2097 23.2025C40.3984 23.1107 40.493 22.982 40.493 22.8167C40.493 22.6514 40.3796 22.5365 40.153 22.4723C39.9357 22.3988 39.5865 22.3299 39.1049 22.2657C38.491 22.1921 37.9669 22.0957 37.5326 21.9764C37.1077 21.8571 36.7395 21.6367 36.4278 21.3151C36.1162 20.9936 35.9604 20.5437 35.9604 19.9651C35.9604 19.4876 36.1066 19.0649 36.3995 18.6977C36.6921 18.321 37.1171 18.0273 37.6743 17.816C38.2409 17.5956 38.9159 17.4854 39.6998 17.4854C40.2567 17.4854 40.8091 17.5405 41.357 17.6507C41.9046 17.7609 42.3626 17.9171 42.7309 18.1191L41.9235 19.8962C41.2437 19.5289 40.5071 19.3451 39.7139 19.3451C39.289 19.3451 38.9774 19.3956 38.7791 19.4967C38.5808 19.5884 38.4816 19.7124 38.4816 19.8686C38.4816 20.043 38.5901 20.167 38.8074 20.2406C39.0244 20.3048 39.3833 20.3737 39.8839 20.4472C40.5165 20.539 41.0406 20.6448 41.4561 20.7641C41.8714 20.8834 42.2303 21.1038 42.5326 21.4253C42.8442 21.7375 43 22.1783 43 22.7478C43 23.2162 42.8536 23.6386 42.5609 24.0153C42.268 24.3825 41.8337 24.6718 41.2578 24.8831C40.6913 25.0945 40.0066 25.2 39.204 25.2Z" fill="white"/>
</g>
<defs>
<clipPath id="clip0_201_2">
<rect width="43" height="28" fill="white"/>
</clipPath>
</defs>
</svg>
